<?xml version="1.0" encoding="UTF-8" standalone="no"?>
<!-- Created with Inkscape (http://www.inkscape.org/) -->

<svg
   version="1.1"
   id="svg2"
   xml:space="preserve"
   width="533.33331"
   height="266.66666"
   viewBox="0 0 533.33331 266.66666"
   sodipodi:docname="acap_illustrator.ai"
   xmlns:inkscape="http://www.inkscape.org/namespaces/inkscape"
   xmlns:sodipodi="http://sodipodi.sourceforge.net/DTD/sodipodi-0.dtd"
   xmlns="http://www.w3.org/2000/svg"
   xmlns:svg="http://www.w3.org/2000/svg"><defs
     id="defs6"><clipPath
       clipPathUnits="userSpaceOnUse"
       id="clipPath16"><path
         d="M 0,200 H 400 V 0 H 0 Z"
         id="path14" /></clipPath></defs><sodipodi:namedview
     id="namedview4"
     pagecolor="#ffffff"
     bordercolor="#666666"
     borderopacity="1.0"
     inkscape:pageshadow="2"
     inkscape:pageopacity="0.0"
     inkscape:pagecheckerboard="0" /><g
     id="g8"
     inkscape:groupmode="layer"
     inkscape:label="acap_illustrator"
     transform="matrix(1.3333333,0,0,-1.3333333,0,266.66667)"><g
       id="g10"><g
         id="g12"
         clip-path="url(#clipPath16)"><g
           id="g18"
           transform="translate(279.1309,72.9824)"><path
             d="M 0,0 V 9 L 36,27 0,45 v 9 L 54,27 Z M 18,72 C -6.854,72 -27,51.853 -27,27 -27,2.146 -6.854,-18 18,-18 42.854,-18 63,2.146 63,27 63,51.853 42.854,72 18,72"
             style="fill:#4f2e91;fill-opacity:1;fill-rule:nonzero;stroke:none"
             id="path20" /></g><g
           id="g22"
           transform="translate(279.1309,126.9824)"><path
             d="M 0,0 V -9 L 36,-27 0,-45 v -9 l 54,27 z"
             style="fill:#ffffff;fill-opacity:1;fill-rule:nonzero;stroke:none"
             id="path24" /></g><g
           id="g26"
           transform="translate(66.9644,74.6484)"><path
             d="M 0,0 H -9 L 18,54 45,0 H 36 L 18,36 Z"
             style="fill:#5c51a2;fill-opacity:1;fill-rule:nonzero;stroke:none"
             id="path28" /></g><g
           id="g30"
           transform="translate(134.7144,79.6484)"><path
             d="m 0,0 c -11.322,0 -20.5,9.179 -20.5,20.5 0,11.322 9.178,20.5 20.5,20.5 7.179,0 13.486,-3.696 17.148,-9.284 l 5.209,3.925 C 17.501,42.797 9.3,47.5 0,47.5 c -14.912,0 -27,-12.088 -27,-27 0,-14.911 12.088,-27 27,-27 9.394,0 17.664,4.801 22.5,12.078 l -4.916,4.424 C 14.004,4.02 7.479,0 0,0"
             style="fill:#5c51a2;fill-opacity:1;fill-rule:nonzero;stroke:none"
             id="path32" /></g><g
           id="g34"
           transform="translate(163.2144,73.1484)"><path
             d="M 0,0 H -9 L 18,54 45,0 H 36 L 18,36 Z"
             style="fill:#5c51a2;fill-opacity:1;fill-rule:nonzero;stroke:none"
             id="path36" /></g><g
           id="g38"
           transform="translate(228.4346,104.123)"><path
             d="m 0,0 -11.53,0.023 -1.607,0.003 -0.009,1.819 -0.06,12.313 -0.013,2.394 h 13.208 c 4.571,0 8.276,-3.705 8.276,-8.276 C 8.265,3.709 4.565,0.006 0,0 m 14.405,8.276 c 0,7.864 -6.299,14.245 -14.125,14.402 v 0.014 h -13.5 -7 V 14.158 1.845 -30.975 h 7.666 l -0.315,24.834 h 1.339 11.81 v 0.015 c 7.826,0.157 14.125,6.538 14.125,14.402"
             style="fill:#5c51a2;fill-opacity:1;fill-rule:nonzero;stroke:none"
             id="path40" /></g></g></g></g></svg>
